<?xml version="1.0" encoding="UTF-8" standalone="no"?>
<svg
   version="1.1"
   id="Layer_2"
   x="0px"
   y="0px"
   width="400.667px"
   height="400.666px"
   viewBox="0 0 400.667 400.666"
   enable-background="new 0 0 400.667 400.666"
   xml:space="preserve"
   sodipodi:docname="fi_circle.svg"
   inkscape:version="1.1.1 (3bf5ae0d25, 2021-09-20)"
   xmlns:inkscape="http://www.inkscape.org/namespaces/inkscape"
   xmlns:sodipodi="http://sodipodi.sourceforge.net/DTD/sodipodi-0.dtd"
   xmlns="http://www.w3.org/2000/svg"
   xmlns:svg="http://www.w3.org/2000/svg"><defs
   id="defs175" /><sodipodi:namedview
   id="namedview173"
   pagecolor="#505050"
   bordercolor="#eeeeee"
   borderopacity="1"
   inkscape:pageshadow="0"
   inkscape:pageopacity="0"
   inkscape:pagecheckerboard="0"
   showgrid="false"
   inkscape:zoom="1.0382713"
   inkscape:cx="-282.68141"
   inkscape:cy="311.5756"
   inkscape:window-width="1920"
   inkscape:window-height="1017"
   inkscape:window-x="-8"
   inkscape:window-y="-8"
   inkscape:window-maximized="1"
   inkscape:current-layer="Layer_2" />
<filter
   filterUnits="objectBoundingBox"
   id="AI_Shadow_1"
   x="-4.3201502e-05"
   y="-4.3201502e-05"
   width="1.0000864"
   height="1.0000864">
	<feGaussianBlur
   stdDeviation="0.005994"
   result="blur"
   in="SourceAlpha"
   id="feGaussianBlur155" />
	<feOffset
   dy="0"
   dx="0"
   result="offsetBlurredAlpha"
   in="blur"
   id="feOffset157" />
	<feMerge
   id="feMerge163">
		<feMergeNode
   in="offsetBlurredAlpha"
   id="feMergeNode159" />
		<feMergeNode
   in="SourceGraphic"
   id="feMergeNode161" />
	</feMerge>
</filter>
<path
   id="rect1045"
   style="fill:#000004;fill-rule:evenodd;fill-opacity:1"
   d="M -10.59375 -11.558594 L -10.59375 410.29688 L 421.85547 410.29688 L 421.85547 -11.558594 L -10.59375 -11.558594 z M 199.36914 40.242188 A 156.99173 159.12788 0 0 1 356.36133 199.36914 A 156.99173 159.12788 0 0 1 199.36914 358.49805 A 156.99173 159.12788 0 0 1 42.378906 199.36914 A 156.99173 159.12788 0 0 1 199.36914 40.242188 z " /><g
   filter="url(#AI_Shadow_1)"
   id="g170"
   style="fill:#000000;stroke-width:0;stroke-miterlimit:4;stroke-dasharray:none;filter:url(#AI_Shadow_1);fill-opacity:1">
	<path
   fill="#232323"
   d="M200.333,33.5c-91.956,0-166.5,74.544-166.5,166.5s74.544,166.5,166.5,166.5   c91.957,0,166.5-74.544,166.5-166.5S292.29,33.5,200.333,33.5z M200.667,350.099c-82.714,0-149.767-67.053-149.767-149.767   c0-82.713,67.053-149.767,149.767-149.767s149.767,67.053,149.767,149.767C350.433,283.046,283.38,350.099,200.667,350.099z"
   id="path166"
   style="fill:#000000;stroke-width:0;stroke-miterlimit:4;stroke-dasharray:none;fill-opacity:1" />
	<path
   fill="none"
   stroke="#353535"
   stroke-width="1.3"
   stroke-miterlimit="10"
   d="M200.333,33.5   c-91.956,0-166.5,74.544-166.5,166.5s74.544,166.5,166.5,166.5c91.957,0,166.5-74.544,166.5-166.5S292.29,33.5,200.333,33.5z    M200.667,350.099c-82.714,0-149.767-67.053-149.767-149.767c0-82.713,67.053-149.767,149.767-149.767   s149.767,67.053,149.767,149.767C350.433,283.046,283.38,350.099,200.667,350.099z"
   id="path168"
   style="fill:#000000;stroke-width:0;stroke-miterlimit:4;stroke-dasharray:none;fill-opacity:1" />
</g>
</svg>
